/* XPM */
static char *result[] = {
/* columns rows colors chars-per-pixel */
"50 50 3 1 ",
"  c #000011",
". c yellow",
"X c white",
/* pixels */
"                                                  ",
"                                                  ",
"                                                  ",
"                                                  ",
"                                                  ",
"                                                  ",
"                                                  ",
"                                                  ",
"                                                  ",
"                                                  ",
"                                                  ",
"                                                  ",
"                                                  ",
"                                                  ",
"                                                  ",
"                                                  ",
"                                                  ",
"                  ..................              ",
"                  ..................              ",
"                  ..................              ",
"                  ..................              ",
"                  ..................              ",
"            ........................              ",
"          ..........................              ",
"        ............................              ",
"          ..........................              ",
"            ........................              ",
"                  ..................              ",
"                  ..................              ",
"                  ..................              ",
"                  ..................              ",
"                  ..................              ",
"                                                  ",
"                                                  ",
"                                                  ",
"                                                  ",
"                                                  ",
"                                                  ",
"                                                  ",
"                                                  ",
"                                                  ",
"                                                  ",
"                                                  ",
"                                                  ",
"                                                  ",
"                                                  ",
"                                                  ",
"                                                  ",
"                                                  ",
"                                                  "
};
