/* XPM */
static char *_9a2810c7433433fc6bb6644660b4f7aeMiDJAmJMMXLLeSA[] = {
/* columns rows colors chars-per-pixel */
"50 50 231 2 ",
"   c #002D7B",
".  c #002F72",
"X  c #003679",
"o  c #0A3A7A",
"O  c #D90B19",
"+  c #DD131C",
"@  c #DE1F1F",
"#  c #DF1410",
"$  c #C91312",
"%  c #E7090D",
"&  c #F1080D",
"*  c #E60E14",
"=  c #EA0D14",
"-  c #EB0E1B",
";  c #EC0417",
":  c #F30E13",
">  c #F20D1A",
",  c #F10614",
"<  c #E41016",
"1  c #EB1116",
"2  c #EA1B17",
"3  c #E5151B",
"4  c #EC141C",
"5  c #E51B1D",
"6  c #EB1B1E",
"7  c #F61115",
"8  c #F3141D",
"9  c #F31B1D",
"0  c #F91A1E",
"q  c #E6160C",
"w  c #DE211F",
"e  c #ED241E",
"r  c #E42419",
"t  c #F0251F",
"y  c #C51D24",
"u  c #DA1626",
"i  c #D60B21",
"p  c #EB0D23",
"a  c #E70E26",
"s  c #F60E23",
"d  c #E51422",
"f  c #EC1523",
"g  c #E51C23",
"h  c #ED1B24",
"j  c #E61D2A",
"k  c #EC1C2A",
"l  c #E9152B",
"z  c #F31523",
"x  c #FB1524",
"c  c #F21B24",
"v  c #F91A26",
"b  c #F2152A",
"n  c #FC142A",
"m  c #F31C2B",
"M  c #FB1B2D",
"N  c #EA1A33",
"B  c #F71A32",
"V  c #C8242B",
"C  c #DD222C",
"Z  c #D92729",
"A  c #C82D33",
"S  c #CD383A",
"D  c #D82731",
"F  c #E42224",
"G  c #EB2224",
"H  c #E5212A",
"J  c #ED222A",
"K  c #E6292F",
"L  c #EB292A",
"P  c #F22124",
"I  c #F2222C",
"U  c #FA222B",
"Y  c #F12A2D",
"T  c #EB2130",
"R  c #E12D3A",
"E  c #EA2B38",
"W  c #EC2B34",
"Q  c #EE303C",
"!  c #F73138",
"~  c #CC3A48",
"^  c #D63F46",
"/  c #ED3443",
"(  c #E93B48",
")  c #F13B43",
"_  c #F83948",
"`  c #B9665E",
"'  c #D1414B",
"]  c #DE5E5D",
"[  c #CF4D51",
"{  c #EA424C",
"}  c #E94145",
"|  c #F84146",
" . c #E84654",
".. c #FF4B5C",
"X. c #F65A5D",
"o. c #C8625E",
"O. c #C25262",
"+. c #DD5D62",
"@. c #D55C61",
"#. c #E25B61",
"$. c #EC5A66",
"%. c #F35C6A",
"&. c #F65564",
"*. c #C46665",
"=. c #DF6369",
"-. c #D76461",
";. c #DC6973",
":. c #DB7273",
">. c #E26264",
",. c #E2646C",
"<. c #E86669",
"1. c #E46771",
"2. c #E96B72",
"3. c #F36774",
"4. c #F46C75",
"5. c #E6777A",
"6. c #F97277",
"7. c #FA757E",
"8. c #032D83",
"9. c #013C83",
"0. c #063885",
"q. c #163F8E",
"w. c #003C93",
"e. c #163F9B",
"r. c #0D4687",
"t. c #034291",
"y. c #184591",
"u. c #335A99",
"i. c #295592",
"p. c #356997",
"a. c #486C9E",
"s. c #5077A3",
"d. c #637FA6",
"f. c #EA7983",
"g. c #F67385",
"h. c #6E8AB4",
"j. c #D58484",
"k. c #DC9596",
"l. c #CE928D",
"z. c #EA888B",
"x. c #F2858A",
"c. c #E1908F",
"v. c #E88D94",
"b. c #F88891",
"n. c #E99494",
"m. c #E79497",
"M. c #F69891",
"N. c #EAA09C",
"B. c #FD98A0",
"V. c #D7A5AC",
"C. c #DAAEAC",
"Z. c #D5B8B1",
"A. c #D4ADAB",
"S. c #ECA0A2",
"D. c #F7A8A7",
"F. c #FFB1AC",
"G. c #F5BDA2",
"H. c #F9B9B9",
"J. c #E4ADB2",
"K. c #D6C2B8",
"L. c #E1C1B4",
"P. c #949CCB",
"I. c #9FAECF",
"U. c #9CACD6",
"Y. c #9DB1D7",
"T. c #FBBEC7",
"R. c #B8C4DC",
"E. c #AFD1D7",
"W. c #B7C6E5",
"Q. c #DAD6D5",
"!. c #D2CBCC",
"~. c #EACDC5",
"^. c #F6C8C7",
"/. c #F8D5CC",
"(. c #FCDAD4",
"). c #FDDCD8",
"_. c #F8D9D8",
"`. c #EDD2D2",
"'. c #D8E0D3",
"]. c #EAE2D8",
"[. c #F8E5DA",
"{. c #C1D2EC",
"}. c #FFDDE7",
"|. c #D8FAFA",
" X c transparency",
".X c transparency",
"XX c transparency",
"oX c transparency",
"OX c transparency",
"+X c transparency",
"@X c transparency",
"#X c transparency",
"$X c transparency",
"%X c transparency",
"&X c transparency",
"*X c transparency",
"=X c transparency",
"-X c transparency",
";X c transparency",
":X c transparency",
">X c transparency",
",X c transparency",
"<X c transparency",
"1X c transparency",
"2X c transparency",
"3X c transparency",
"4X c transparency",
"5X c transparency",
"6X c transparency",
"7X c transparency",
"8X c transparency",
"9X c transparency",
"0X c transparency",
"qX c transparency",
"wX c transparency",
"eX c transparency",
"rX c transparency",
"tX c transparency",
"yX c transparency",
"uX c transparency",
"iX c transparency",
"pX c transparency",
"aX c transparency",
"sX c transparency",
"dX c transparency",
"fX c transparency",
"gX c transparency",
"hX c transparency",
"jX c transparency",
"kX c transparency",
"lX c transparency",
/* pixels */
"hXhXiXhX+X+X+XqXdXgXgXpXoX&XoXeXrXaXhXqXOX+XOXdXdXhXhX#X+X+XqXhXhXeXrX+X5X2XqXuXhXhXqX+X+XqXiXhXhXhX",
"hXhXhXhX+X+X+XqXaXaXuX7X2XqX+XyXdXgXhXtX5XpX2XwXyXiXqX%X0X5XtXdXhXgXtX+X#XXXiXgXhXhXqX+X+X&XiXhXhXhX",
"hXhXhXiX+X+X+XqXaXhXhXpXOX5X,XtXgXyXwX~.N.x.3.3.$.%.%.4.f.S.~.:XuXuXyX2X=X-X3XdXhXhXqX+X+XqXiXhXhXhX",
"hXhXiXiXqXqX+XqXhXtXwXyX#X%XtXhX(.m.%._ L L 5 4 2 9 8 9 m K ) X.M.(.uXtX1X#X;XaXdXiXpX#X2XqXiXhXiXhX",
"+X+X+XqXhXhXhXhX+X3X+XqXaXrX(.f.) J 8 8 2 5 h n c c g g G d d f k / f.).dXdXtX+X+X#XiXhXhXdXqXOX+X+X",
",X+X+X-XhXhXgXpXoX|.OXiXrXm.} F 6 g g g h m k k j j h h c m I m n g I ) m.eX6X<XqX+XpXiXhXiXpX#X+X+X",
"+X+X+X2XhXhXhXiXwXoX*X`.3.N m 9 l k m c h h h h h c c c h 6 h 6 H g 2 U h 4.(.7X+X+XiXaXhXhX+X.X+X+X",
"qXpXqXqXgXpXpXpX4XuXL. .z h G h c c g k m h 5 9 h g h 6 h c k h 4 m k g c z  .~.iX,XpXpXpXiXpXqXqXqX",
"iXhXrXaX,X$X=X2XhX/.( x c m h 6 j k c 5 h g k m h h h h h h h h 6 5 G h h 6 F ) /.uX3XXX,X,XiXrXhXhX",
"hXdXrXiX,XtX@XuX[. .k g g h f c 9 9 c m h h c 6 h h h h h h h h m m m h c P k m ( [.pX+XqX&XeXgXhXhX",
"hXdXhXgX+XOX+X$X>.p c 5 g k M h j g h h z f m k c h h h h h h h h h h f f 9 h h b $.6X,X<X=XiXhXhXhX",
"qXqXtXtXpX3XuXv.8 G 6 9 c z m F h h G g h 6 g G h h h h h h h h 8 9 g J I h h H k 4 v.hXwX-XwXpXpXpX",
"-X#X,X5XaXhX].R v 5 z h g m d 6 9 c l k J k k 5 k h h h h h h f J h f h j k z n k e T ].hXuX5X-X+X+X",
"+X+X5XtXiXrXf.- j h m k d g g h k I h 6 e 6 f M h h h h c h h h d G L m c 6 e r b 2 c 5.gXgX3XXX+X+X",
"2X+XoX#XhX).E 9 c J u c U g c k G 1 7 7 = 1 z z h h h h h h h h P c 4 - - p b % z m 6 E ].iX,XXX+X+X",
"eXiXrX3XuXc.< P 5 v h g 6 c h m 8 E g.T.`.H.6.K h f h h c h h h m - T 6.H./.H.b.Y a I , c.gXpXyXpXpX",
"rXdXaXhX&X} 6 h f k b r h N 9 - { ).uXhXgXhXuX}.{ - g c h c J c 8 _ (.9XgXgXyXuX2XX.= 2 { >XiXaXhXhX",
"aXhXiXiX`.R f c h 6 m h f k 8 ( yXrXwXgXrXwXuXeX$XW 5 l m 5 h 6 J $XgXiXyXpXrXgXrX:X( - R Q.hXiXhXhX",
"hXgXiXiXJ.u 9 c J h h c m f 4 D.uXrXrXeXtXI.a.h.|.F.= d k c c = B.8XgXaXuXhXY.s.h.|.^., 4 A.hXhXhXhX",
"-X3X%XdXv.* c c 5 c k h I 1 L wXrXiXiXhXP.  w.X p.$XI m j 6 z k }.hXgXqXrXY.8.X 8.i.<X! & v.9X#XqXqX",
"+X2XOXuX5.= J g h 6 m k g 8 | 9XhXgXaXdXu.9.r.0.w.!._ + P 2 m Q 3XhXgXrXhXp.0.y.q.. W.&.% f.uX,X+X+X",
"+X,X%XdX2.= L 5 c 5 m g g 1 Q aXhXgXwXuXp.9.q.e.0.Q.| 4 h r f Q qXaXaXeXdXs.8.r.t.X E...; ;.gX+X+X+X",
"+X+XOXpX=.1 J c c h j 6 c k J (.eXpXaXgXW.o 8.. h.$Xm z 5 J g 4 ^.rXgXhXhX{.r.0.  h.[.L = >.0XoX2X+X",
"hXaXdXgX,.1 k h c c C 9 s W ; z.gXwXuXiXaX XI.E.dXg.= F c m m = 5.gXiXgXuXrXoXU.R.yXM.< - #.hXiXhXgX",
"hXhXrXuX,.* k h h h h h h f h h H.;XuXrXyXyXhXhXG.j n F 6 8 I k b F.uXgXdXaXiXgXrX/.k z 4 #.uXaXhXhX",
"hXhXhXuX=.= k h h h h h h h h h N D.rXdXyXiX:XS.N f k F c c 5 G 9 b b.eXhXyXgXhXD.N d F 4 @.hXhXhXhX",
"pXiXpXuX,.= I h h c h h h c h h 9 - / 7.x.4._ ; s I g h h c h h C 6 , / 6.z.4.{ l h e 8 = o.hXyXhXhX",
"2X+X&XuX,.1 k h h h h h h h k h P F 3 q % < 6 h L F 4 U d h x g m h c 4 - - : q x w 1 U < ,.uXoX+X+X",
"+X@X+XeX1.1 k h h h h h h f h h 3 m M l m T k J 1 h h h F c h F 4 k H g J G g b 5 J v h ; <.9XoX#X5X",
"#X+XXX9X1.1 k c h k h h h c h h c h j j l m z 6 c c h g h I g h e I b M c 3 k B h j g M > -.9X#X+XoX",
"pXqXqXuX,.- k c h c h h h h h h 5 h P c 6 9 G g g 5 c v f 5 z m 5 8 v 6 6 P 2 c 9 m k h = <.8XwXtXqX",
"hXhXhXuX=.= J h h h h h h h h h h J 5 c h g k n k J h g 5 h c j N h 5 J j b m g 6 j F h = #.gXuXhXhX",
"gXhXhXuX+.4 k h h h h h h h h h h h h h h h z h h h h h h h h h h h c h h h h h h h h J - +.dXhXhXhX",
"hXhXhXuX,.= k h h h h h h h h h h h h c h h k h h h h h h h h h h h h h h h h f h k h k - ] uXhXgXhX",
"pXiXqXuX,.= m h h h k h h h h h h h h h h h h h h h h h h h h h h h h k h h h h h h c h 4 +.uXpXpXpX",
"+XqXoXuX,.* I h h h c h h h c h h h h h h h h h h h h h h h c h h h h h h c h h 6 k c k - #.uX+X+X+X",
"+X+XOXuX,.= m g h h h h h h h h h h c h h h h h h c h h h h h f h h h h h h h h h h c h 4 >.tX+X+X+X",
"#X+X+XeX,.4 I h h h h h h h h h h h h h c h h h h h h h h m h h h h h h h h h h h k h J - >.eX+X+X+X",
"pXqXqXuX,.= k h h c h h h h h f h h h h h h h h h h h h h h h h h h h h c h h k 6 k c j - #.uXtXpXpX",
"gXhXhXdX,.= k h h h h h h h h m h h h h h h h h h h h h h h h h c f h h h h h h h h c j = +.dXhXhXhX",
"uXaXaXhX#.# k h 2 j m h f J h g e j c 6 g h c N h k k c c f m h k f 0 J g m f k k z h L d #.;XuXhXhX",
"hXgXhXuX@.< M z B c g c P 9 k v c 6 h x 6 6 3 e 0 t 6 G f F 9 w h c r 4 c 0 6 F h k f 6 < $.uXgXhXhX",
"3XpX&XuX:.< g k l 5 0 6 j + 6 H m 9 F h P c x = u $ h j J m g x 6 h h g h + 3 d 5 m b r > ;.uX-XqXqX",
"@XOXOXiX1.> M k J m < *.!.C.D > g B j j j M a ` Z.C.O.d 8 g l m m h c d ~ !.C.S 8 2 M k & ;.9X$X&X+X",
"-X,X#XeX5.: 5 G g O l.9XuXgX~.Z 0 j 3 5 I a ;.8X5XuXtXj.- 6 h m g h 4 ' *XhXhXQ.' > F k 8 :.8X$X+X+X",
"#X>X@X9Xk.= F h + k.8XyXyXtXuXV.O G v U 1 S pX1XXXtX,X6X+.: r G h 0 C ].hXrX$X7XQ.A 8 L & 5.dX>X+X+X",
"rXuXiXhXV.< M i l.iXiXyXqX-X#X8Xj.O z h y L.9XiXhXwXiXtX.X~ , v u u K.pXOX-XiXuXdX!.u l 4 m.yXyXiXiX",
"rXhXuXgX+Xo.y j.gXaXuXiXOXoX#XyXuXj.D V A.tX#XaXhXdXaXoXeXQ.O.V ' K.hXXX#X,X7XrXrXaXZ.V ~ Q.uXrXhXhX",
"hXhXhXtXqX+XQ.tXhXhXhXpX+X+X+XpXhXiX+X.X+XtXoXdXhXhXiX+X+XqX+X.XpXaXpX+X+X+XpXhXhXhXpX.XQ.eXgXhXhXhX",
"hXiXhXaX+X&XXXpXhXhXhXpX+X+X+XtXgXhXhX-X+X+X+XhXhXdXhX+X+X+XpXiXiXhXpX+X+X+XqXhXhXhXqX+X+XqXtXhXgXhX"
};
