/* XPM */
static char *b62729e46691480dc7230bb343d1b0589T6zOG6SIm08oOVz[] = {
/* columns rows colors chars-per-pixel */
"50 50 121 2 ",
"   c white",
".  c #0C0B00",
"X  c #100F00",
"o  c #141301",
"O  c #181702",
"+  c #1B1900",
"@  c #211F03",
"#  c #242200",
"$  c #292701",
"%  c #2B2900",
"&  c #302E08",
"*  c #343200",
"=  c #393601",
"-  c #3D3A02",
";  c #36330A",
":  c #38350A",
">  c #3D3A0C",
",  c #413E00",
"<  c #4B4700",
"1  c #4E4A01",
"2  c #4A4709",
"3  c #4D4A0E",
"4  c #524D00",
"5  c #504D0F",
"6  c #555000",
"7  c #595401",
"8  c #5E5900",
"9  c #5F5A0B",
"0  c #4F4C10",
"q  c #514E10",
"w  c #615D02",
"e  c #656000",
"r  c #6A6400",
"t  c #6F6900",
"y  c #676308",
"u  c #6E690C",
"i  c #736D00",
"p  c #777100",
"a  c #7C7500",
"s  c #7F7900",
"d  c #7A750B",
"f  c #7F790E",
"g  c #66621B",
"h  c #6B671C",
"j  c #7D781C",
"k  c #857F00",
"l  c #847F17",
"z  c #888100",
"x  c #948C00",
"c  c #9A9200",
"v  c #86811F",
"b  c #928C19",
"n  c #9A941F",
"m  c #A59D00",
"M  c #A39C08",
"N  c #AEA602",
"B  c #B4AB00",
"V  c #B8AF00",
"C  c #B1A90B",
"Z  c #918C27",
"A  c #959028",
"S  c #A59F22",
"D  c #B4AD24",
"F  c #B7B023",
"G  c #B8B125",
"H  c #B3AD30",
"J  c #B6B030",
"K  c #C4BA01",
"L  c #C9BF00",
"P  c #C4BC1F",
"I  c #C4BD2C",
"U  c #CBC200",
"Y  c #D1C700",
"T  c #D5CA00",
"R  c #D5CB0E",
"E  c #DFD500",
"W  c #E1D600",
"Q  c #E4D900",
"!  c #E9DE00",
"~  c #E2D80E",
"^  c #E4DB1C",
"/  c #EDE100",
"(  c #F2E700",
")  c #F5E900",
"_  c #F9EE02",
"`  c #F7EB08",
"'  c #FFF300",
"]  c #FFF805",
"[  c #FFF70B",
"{  c #FFF90E",
"}  c #EBE011",
"|  c #EDE31B",
" . c #F4E914",
".. c #F9EE14",
"X. c #F1E719",
"o. c #FFF614",
"O. c #FFF813",
"+. c #FFF815",
"@. c #FFF619",
"#. c #FFF51E",
"$. c #CFC720",
"%. c #C8C12D",
"&. c #CBC32C",
"*. c #CBC32D",
"=. c #D4CC31",
"-. c #D5CD32",
";. c #D7CF34",
":. c #E7DE24",
">. c #E7DE28",
",. c #EDE323",
"<. c #ECE328",
"1. c #EFE52A",
"2. c #F5EA22",
"3. c #F5EB22",
"4. c #F5EB23",
"5. c #F7EC21",
"6. c #F6EC22",
"7. c #F7EC22",
"8. c #F6EC23",
"9. c #F1E829",
"0. c #FFF420",
/* pixels */
"                                                                                                    ",
"                                                                                                    ",
"                                                                                                    ",
"                                        O * < 8 e e 8 < * O .                                       ",
"                                . = p N T / _ ' ' ' ' ) / T N p = .                                 ",
"                            o 8 C / ' ] ] ' ' ' ' ' ' ' ' ' ] ' / B 8 o                             ",
"                        . 7 K _ ' ' ' ' ' ' ' ' ' ' ' ' ' ' ' ' ' ' _ K 7 .                         ",
"                      $ M ` ' ' ' ' ' ' ' ' ' ' ' ' ' ' ' ' ' ' ' ' ' ' ) m %                       ",
"                    1 R ] ' ' ' ' ' ' ' ' ' ' ' ' ' ' ' _ ' ' ' ' ' ' _ ' ' T <                     ",
"                  y } ] _ ' ' ' ' ' ' ' ' ' _ ' ' ' ' ' ' ' ' ' ' ' ' ' ' ' ' ! e .                 ",
"                u  .] ' ' ' ' ' ' ' ' ' ' ' ' ' ' ' ' ' ' ' ' ' ' ' ' ' ' ' ' ' ( r                 ",
"              9 X.' ' ' ' ' ' ' ' ' ' ' ' ' ' ' ' ' ' ' ' ' ' ' ' ' ' ' ' ' ' ' ' / w               ",
"            - ^ ] ' ' ' ' ' ' ' ' ' ' ' ' ' ' ' ' ' ' ' ' ' ' ' ' ' ' ' ' ' ' ' ' ' W ,             ",
"          O I [ ' ' ' ' ' ' ' ' ' ' ' ' ' ' ' ' ' ' ' _ ' ' ' ' ' ' ' ' ' ' ' ' ' ' ' K +           ",
"          l o.' ' ' ' ' ' ' ' ' ' ' ' ' ' ' ' ' ' ' ' ' ' ' ' ' ' ' ' ' ' ' ' ' ' ' ' ' k           ",
"        ; :.' ' ' _ ' ' ' ' ' ' ' ' _ ' ' ' ' ' ' ' ' ' ' ' ' ' ' ' ' ' ' ' ' ' ' ' ' ' Q =         ",
"        n o.' ' ' ' ' ' ' ' ' ' ' ' ' ' ' ' ' ' ' ' ' ' ' ' ' ' ' ' ' ' ' ' ' ' ' ' ' ' ' c .       ",
"      & >.' ' ' ' ' ' ' ' ' ' ' ' ' ' ' ' ' ' ' ' ' ' ' ' ' ' ' ' ' ' ' ' ' ' ' ' ' ' ' ' Q *       ",
"      j @.' ' ' ' ' ' ' ' ' ' ' ' ' ' ' ' ' ' ' ' ' ' ' ' ' ' ' ' ' ' ' ' ' ' _ ' ' ' ' ' ' s       ",
"    . I [ ' ' ' ' ' ' ' ' ' ' ' ' ' ' ' ' ' ' ' ' ' ' ' ' ' ' ' ' ' ' ' ' ' ' ' ' ' ' ' ' ' K o     ",
"    : 1.' ' ' ' ' _ ' ' ' ' ' _ ' ' _ ' ' ' ' ' ' _ ' ' ' ' ' ' ' ' ' ' ' ' ' ' ' ' ' _ ' ' / =     ",
"    g 0.' ' ' ' ' ' ' ' ' ' ' ' ' ' ' ' ' ' ' ' ' ] ' ' ' _ ' ' ' _ ' ' ' ' ' ' ' ' ' ' ' ' ' r     ",
"    Z +.' ' ' ' ' ' ' ' ' ' ' ' ' ' ' ' ' ' ' ' K P [ ' ' ' ' ' ' ' ' ' ' ' ' ' ' ' ' ' ' ' ' x     ",
"  . H [ ' ' ' ' ' ' ' ' ' ' ' ' ' ' ' ' ' ' ' ( 4 q 7.' ' ' ' ' ' ' ' ' ' ' ' ' ' ' ' ' ' ' ' B .   ",
"  . %.] ' ' ' ' ' ' _ ' ' ' ' ' ' ' ' ' ' ' ' V X . G [ ' ' ' ' ' ' ' ' ' ' ' ' ' ' ' ' ' ' ' U o   ",
"  O =.' ' ' ' ' ' ' ' ' ' ' ' ' ' ' ' ' ' ' ) 6     q 5.' ' ' ' ' ' ' ' ' ' ' ' ' ' ' ' ' ' ' Y O   ",
"  O ;.] ' ' ' ' ' ' ' ' ' ' ' ' ' ' ' ' ' ' B o     . F [ ' ' ' ' ' ' ' _ ' ' ' ' ' ' ' ' ' ' T +   ",
"  O ;.[ ' ' ' ' ' ' ' ' ' ' ' ' ' ' ' ' ' ) 6         5 6.' ' ' ' ' ' ' ' ' ' ' ' ' ' ' ' ' ' Y O   ",
"  . *.] _ ' ' ' ' ' ' ' ' ' ' ' ' ' ' ' ' B o         . D { ' ' ' ' ' ' ' ' ' ' ' ' ' ' ' ' ' U o   ",
"  . H [ ' ' ' ' ' ' ' ' ' ' ' ' ' ' ' ' ) 6             q 6.' ' ' ' ' ' ' ' ' ' ' ' ' ' ' ' ' B .   ",
"    A o.' ' ' ' ' ' ' ' ' ' ' ' ' ' ' ' B .             . D [ ' ' ' ' ' ' ' ' ' ' ' ' ' ' ' ' c     ",
"    h #.' ' ' ' ' ' ' ' ' ' ' ' ' ' ' ) 6                 q 6.' ' ' ' ' ' ' ' ' ' ' ' ' ' ' ' t     ",
"    > 1.' ' ' ' ' ' ' ' ' ' ' ' ' ' ' B X                 . D [ ' ' ' ' ' ' ' ' ' ' ' ' ' ' / ,     ",
"    o *.] ' ' ' ' ' ' ' ' ' ' ' ' ' ) 6                     q 6.' ' ' ' ' ' ' ' ' ' ' ' ' ' L O     ",
"      v @.' ' ' ' ' ' ' ' ' ' ' ' ' B .                     . D { ' ' ' ' ' ' ' ' ' ' _ ' ' z       ",
"      : <.' ' ' ' ' ' ' ' ' ' ' ' ) 4                         3 7.' ' ' ' ' ' ' ' ' ' ' ' ! =       ",
"      . S o.' ' ' ' ' ' _ ' ' ' ' B .                         . D [ ' ' ' ' ' ' ' ' ' ' ' c .       ",
"        : ,.' ' ' ' ' ' ' ' ' ' ) 4                             3 7.' ' ' ' ' ' ' ' ' ' / <         ",
"          b o.' ' ' ' ' ' ' ' ' B .                             . D [ ' ' ' ' ' ' ' ' ' x .         ",
"          # $.[ ' ' ' ' ' ' ' ( 4                                 0 2.' ' ' ' ' ' ' ' U @           ",
"            2 | ' ' ' ' ' ' ' B .                                 . D [ ' ' ' ' ' ' / <             ",
"              u ..' ' ' ' ' ( 4                                     0 2.' ' ' ' ' ) i               ",
"              . f  .] _ ' ' N .                                     . D [ ' ' ' ) a                 ",
"                . d  .] ' ( 4                                         3 7.' ' ( a .                 ",
"                    9 ~ ] B .                                         . D [ E w .                   ",
"                      = N <                                             2 C =                       ",
"                        . .                                             . .                         ",
"                                                                                                    ",
"                                                                                                    ",
"                                                                                                    "
};
