/* XPM */
static char *_4946abe829642a4ed5cef7d3196f0c9NcbM7ayyQdD1gKmP[] = {
/* columns rows colors chars-per-pixel */
"50 50 104 2 ",
"   c black",
".  c #080700",
"X  c #0B0B00",
"o  c #100F01",
"O  c #151401",
"+  c #1C1B01",
"@  c #211F02",
"#  c #262502",
"$  c #282600",
"%  c #2D2B04",
"&  c #353202",
"*  c #3A3702",
"=  c #3E3B00",
"-  c #35330A",
";  c #393709",
":  c #3D3B0B",
">  c #413E01",
",  c #454200",
"<  c #4A4603",
"1  c #4D4900",
"2  c #46440B",
"3  c #4E4B0F",
"4  c #534F00",
"5  c #5A5600",
"6  c #5D5902",
"7  c #5A5609",
"8  c #575310",
"9  c #625D02",
"0  c #605C14",
"q  c #656000",
"w  c #6F6A00",
"e  c #69650A",
"r  c #736D00",
"t  c #777100",
"y  c #7F7900",
"u  c #75700A",
"i  c #79740C",
"p  c #6C6714",
"a  c #757017",
"s  c #7E7914",
"d  c #777319",
"f  c #7E791B",
"g  c #817B00",
"h  c #837D09",
"j  c #8A8400",
"k  c #918A00",
"l  c #979000",
"z  c #9C9400",
"x  c #87821A",
"c  c #938D1D",
"v  c #9A941E",
"b  c #9E981F",
"n  c #A39B03",
"m  c #ABA300",
"M  c #B5AC02",
"N  c #B8AF00",
"B  c #BDB401",
"V  c #8B8624",
"C  c #918C25",
"Z  c #A39D21",
"A  c #AFA821",
"S  c #B6AF24",
"D  c #B0AA2C",
"F  c #BEB623",
"G  c #BEB729",
"H  c #C4BB00",
"J  c #C7BF24",
"K  c #C4BD2C",
"L  c #CDC300",
"P  c #D4CA00",
"I  c #D1C80B",
"U  c #DAD000",
"Y  c #DFD50D",
"T  c #C9C11E",
"R  c #E5DA00",
"E  c #EADF00",
"W  c #E8DD0E",
"Q  c #E0D71A",
"!  c #EDE200",
"~  c #F2E600",
"^  c #F5EA01",
"/  c #F9ED00",
"(  c #FFF300",
")  c #FFF70A",
"_  c #FFF80D",
"`  c #EEE415",
"'  c #F5EA14",
"]  c #F9EE1E",
"[  c #FFF614",
"{  c #FEF41A",
"}  c #CEC625",
"|  c #D6CE26",
" . c #D0C82F",
".. c #DBD225",
"X. c #D4CC31",
"o. c #E3D920",
"O. c #E2D825",
"+. c #E6DD24",
"@. c #EAE024",
"#. c #EBE124",
"$. c #EAE129",
"%. c #EDE329",
"&. c #F4EA21",
"*. c #FEF320",
/* pixels */
"                                                                                                    ",
"                                                                                                    ",
"                                                                                                    ",
"                                                                        + O                         ",
"                      > h o                                           X n M &                       ",
"                  . q R ] 8                                           , ! ) Y 7                     ",
"                X y ~ ( ) F O                                       X z ( ( ( ' u .                 ",
"              . y ^ ( ( ( ] 0                                       = R ( ( ( ( ' i .               ",
"            . r ~ ( ( ( ( ) J O                                   . l ( ( ( ( ( ( ' e               ",
"            4 E ( ( ( ( ( ( { p                                   * R ( ( ( ( ( ( ( ` 2             ",
"          $ L ( ( ( ( ( ( ( ) } +                                 k ( ( ( ( ( ( ( ( ) T +           ",
"        . l ( ( ( ( ( ( ( ( ( { a                               & U ( ( ( ( ( ( ( ( ( [ c           ",
"        < ! ( ( ( ( ( ( ( ( ( ( | @                             j ( ( ( ( ( ( ( ( ( ( ( @.;         ",
"      X m ( ( ( ( ( ( ( ( ( ( ( { f                           $ P ( ( ( ( ( ( ( ( ( ( ( [ b         ",
"      > E ( ( ( ( ( ( ( ( ( ( ( ( ..#                         g ( ( ( ( ( ( ( ( ( ( ( ( ( $.-       ",
"      j ( ( ( ( ( ( ( ( ( ( ( ( ( { x                       $ P ( ( ( ( ( ( ( ( ( ( ( ( ( { f       ",
"    + L ( ( ( ( ( ( ( ( ( ( ( ( ( ( O.-                     t ( ( ( ( ( ( ( / ( ( ( ( ( ( ) K O     ",
"    , ! ( ( ( ( ( ( ( ( ( ( ( ( ( ( [ c                   # L ( ( ( ( ( ( ( ( ( ( ( ( ( ( ( %.;     ",
"    r ( ( ( ( ( ( ( ( ( ( ( ( ( ( ( ( +.-                 w / ( ( ( ( ( ( ( ( ( ( ( ( ( ( ( *.0     ",
"  . z ( ( ( ( ( ( ( ( ( / ( ( ( ( ( ( [ v .             + L ( ( ( ( ( ( ( ( ( ( ( ( ( ( ( ( { C     ",
"  X B ( ( / ( ( ( ( ( ( ( ( ( ( ( ( ( ( @.:             q / ( ( ( ( ( ( ( ( ( ( ( ( ( ( ( ( ) D .   ",
"  O L ( ( ( ( ( ( ( ( ( ( ( ( ( ( ( ( ( [ Z .         O H ( ( ( ( ( ( ( ( ( ( ( ( ( ( ( ( ( ) K X   ",
"  + P ( ( ( ( ( ( ( ( ( ( ( ( ( ( ( ( ( ( @.2         9 / ( ( ( ( ( / ( ( ( ( ( ( ( ( ( ( ( ( X.O   ",
"  + U ( ( ( ( ( ( ( ( ( ( ( ( ( ( ( ( ( ( _ S X     O B ( ( ( ( ( ( ( ( ( ( ( ( ( ( ( ( ( ( ( X.O   ",
"  + P ( ( ( ( ( ( ( ( ( ( ( ( ( ( ( ( ( ( ( &.3     5 / ( ( ( ( ( ( ( ( ( ( ( ( ( ( ( ( ( ( )  .O   ",
"  O L ( ( ( ( ( ( ( ( ( ( ( ( ( ( ( ( ( ( ( ) S X o N ( ( ( ( ( ( ( ( ( ( ( ( ( ( ( ( ( ( ( ) K X   ",
"  X B ( ( ( ( ( ( ( ( ( / ( ( ( ( ( ( ( ( ( ( &.8 1 ~ ( ( ( ( ( ( / ( ( ( ( ( ( ( ( ( ( ( ( [ D .   ",
"    l ( ( ( ( ( ( ( ( ( ( ( ( ( ( ( ( ( ( ( ( ) T B ( ( ( ( ( ( ( ( ( ( ( ( ( ( ( ( ( ( ( ( { V     ",
"    w ( ( ( ( ( ( ( ( ( ( ( ( ( ( ( ( ( ( ( ( ( ( ( ( ( ( ( ( ( ( ( ( ( ( ( ( ( ( ( ( ( ( ( *.8     ",
"    = ! ( ( ( ( ( ( ( ( ( / ( ( ( ( ( ( ( ( ( ( ( ( ( ( ( ( ( ( ( ( ( ( ( ( ( ( ( ( ( ( ( ( $.-     ",
"    O H ( ( ( ( ( ( ( ( ( ( ( ( ( ( ( ( ( ( ( ( ( ( ( ( ( ( ( ( ( ( ( ( ( ( ( ( ( ( ( ( ( ) G o     ",
"      j ( ( ( ( ( ( ( ( ( ( ( ( ( ( ( ( ( ( ( ( ( ( ( ( ( ( ( ( ( ( ( ( ( ( ( ( ( ( ( ( ( { d       ",
"      * R ( ( ( ( ( ( ( ( ( ( ( ( ( ( ( ( ( ( ( ( ( ( ( ( ( ( ( ( ( ( ( ( ( ( ( ( ( ( ( ( O.%       ",
"      . z ( ( ( ( ( ( ( ( ( ( ( ( ( ( ( ( ( ( ( ( ( ( ( ( ( ( ( ( ( ( ( ( ( ( ( ( ( ( ( [ c         ",
"        = R ( ( ( ( ( ( ( ( ( ( ( ( ( ( ( ( ( ( ( ( ( ( ( ( ( ( ( ( ( ( ( ( ( ( ( ( ( ( o.-         ",
"          j ( ( ( ( ( ( ( ( ( ( ( ( ( ( ( ( ( ( ( ( ( / / ( ( ( ( ( ( ( ( ( ( ( ( ( ( { s           ",
"          + H ( ( ( ( ( ( ( ( ( ( ( ( ( ( ( ( ( ( ( ( ( ( ( ( ( ( ( ( ( ( / ( ( ( ( ( J O           ",
"            , R ( ( ( ( ( ( ( ( ( ( ( ( ( ( ( ( ( ( ( ( ( ( ( ( ( ( ( ( ( ( ( ( ( ( Q ;             ",
"              q ! ( ( ( ( ( ( ( ( ( ( ( ( ( ( ( ( ( ( ( ( ( ( ( ( ( ( ( ( ( ( ( ( ` 7               ",
"              . r ~ ( ( ( ( ( ( ( ( ( ( ( ( ( ( ( ( ( ( ( ( ( ( ( ( ( ( ( ( ( ( ` e                 ",
"                  w ! ( ( ( ( ( ( ( ( ( ( ( ( ( ( ( ( ( ( ( ( ( ( ( ( ( ( ( ( W 9                   ",
"                    4 P ( ( ( ( ( ( ( ( ( ( ( ( ( ( ( ( ( ( ( ( ( ( ( ( ( ) I <                     ",
"                      % m ~ ( ( ( ( ( ( ( ( ( ( ( ( ( ( ( ( ( ( ( ( ) ( ^ n #                       ",
"                        X 5 H / ( ( ( ( ( ( ( ( ( ( ( ( ( ( ( ( ( ( / B 4 .                         ",
"                            O 9 M ! ( ( ( ( ( ( ( ( ( ( ( ( ( ( ! M 5 o                             ",
"                                X * t m P ! / / ( ( ( ^ R P m r & .                                 ",
"                                      . + & 1 6 q 9 6 < & + .                                       ",
"                                                                                                    ",
"                                                                                                    ",
"                                                                                                    "
};
