/* XPM */
static char *result[] = {
/* columns rows colors chars-per-pixel */
"50 50 106 2 ",
"   c black",
".  c #010100",
"X  c #0F0F00",
"o  c #262600",
"O  c #3C3C00",
"+  c #505000",
"@  c #595900",
"#  c #585800",
"$  c #4E4E00",
"%  c #393900",
"&  c #232300",
"*  c #0D0D00",
"=  c #1E1E00",
"-  c #575700",
";  c #959500",
":  c #C5C500",
">  c #E2E200",
",  c #F1F100",
"<  c #F9F900",
"1  c #FCFC00",
"2  c #F8F800",
"3  c #F0F000",
"4  c #E0E000",
"5  c #C1C100",
"6  c #909000",
"7  c #515100",
"8  c #191900",
"9  c #020200",
"0  c #323200",
"q  c #8B8B00",
"w  c #D6D600",
"e  c yellow",
"r  c #F7F700",
"t  c #D0D000",
"y  c #818100",
"u  c #2A2A00",
"i  c #222200",
"p  c #8C8C00",
"a  c #E5E500",
"s  c #DEDE00",
"d  c #7E7E00",
"f  c #1A1A00",
"g  c #040400",
"h  c #565600",
"j  c #FEFE00",
"k  c #464600",
"l  c #808000",
"z  c #E9E900",
"x  c #6F6F00",
"c  c #070700",
"v  c #121200",
"b  c #979700",
"n  c #FBFB00",
"m  c #848400",
"M  c #0A0A00",
"N  c #282800",
"B  c #FAFA00",
"V  c #838300",
"C  c #454500",
"Z  c #DDDD00",
"A  c #F6F600",
"S  c #494900",
"D  c #EAEA00",
"F  c #484800",
"G  c #4C4C00",
"H  c #E3E300",
"J  c #C6C600",
"K  c #1B1B00",
"L  c #545400",
"P  c #E8E800",
"I  c #E1E100",
"U  c #2E2E00",
"Y  c #888800",
"T  c #5C5C00",
"R  c #ECEC00",
"E  c #D7D700",
"W  c #1F1F00",
"Q  c #606000",
"!  c #EEEE00",
"~  c #5E5E00",
"^  c #666600",
"/  c #A1A100",
"(  c #6C6C00",
")  c #F3F300",
"_  c #D3D300",
"`  c #030300",
"'  c #717100",
"]  c #F4F400",
"[  c #EFEF00",
"{  c #787800",
"}  c #060600",
"|  c #767600",
" . c #080800",
".. c #8D8D00",
"X. c #090900",
"o. c #8E8E00",
"O. c #FDFD00",
"+. c #727200",
"@. c #A2A200",
"#. c #898900",
"$. c #989800",
"%. c #555500",
"&. c #333300",
"*. c #3B3B00",
"=. c #4F4F00",
"-. c white",
/* pixels */
"                                                                                                    ",
"                                                                                                    ",
"                                  . X o O + @ # $ % & *                                             ",
"                              = - ; : > , < 1 1 2 3 4 5 6 7 8                                       ",
"                        9 0 q w < e e e e e e e e e e e e r t y u                                   ",
"                      i p a e e e e e e e e e e e e e e e e e e s d f                               ",
"                  g h t e e e e e e e e e e e e e e e e e e e e e j : k .                           ",
"                * l , e e e e e e e e e e e e e e e e e e e e e e e e z x c                         ",
"              v b n e e e e e e e e e e e e e e e e e e e e e e e e e e r m M                       ",
"              N w e e e e e e e e e e e e e e e e e e e e e e e e e e e e B V c                     ",
"                C Z e e e e e e e e e e e e e e e e e e e e e e e e e e e e A x .                   ",
"                  S 4 e e e e e e e e e e e e e e e e e e e e e e e e e e e e D F                   ",
"                    G H e e e e e e e e e e e e e e e e e e e e e e e e e e e e J K                 ",
"                      + a e e e e e e e e e e e e e e e e e e e e e e e e e e e e l                 ",
"                        L P e e e e e e e e e e e e e e e e e e e e e e e e e e e I U               ",
"                          # D e e e e e e e e e e e e e e e e e e e e e e e e e e e Y               ",
"                            T R e e e e e e e e e e e e e e e e e e e e e e e e e e E W             ",
"                              Q ! e e e e e e e e e e e e e e e e e e e e e e e e e n ~             ",
"                              . ^ , e e e e e e e e e e e e e e e e e e e e e e e e e / g           ",
"                                9 ( ) e e e e e e e e e e e e e e e e e e e e e e e e _ 8           ",
"                                  ` ' ] e e e e e e e e e e e e e e e e e e e e e e e [ %           ",
"                                    g { A e e e e e e e e e e e e e e e e e e e e e e n T           ",
"                                      } d 2 e e e e e e e e e e e e e e e e e e e e e e |           ",
"                                         .m < e e e e e e e e e e e e e e e e e e e e e ..          ",
"                                          X.o.O.e e e e e e e e e e e e e e e e e e e e b           ",
"                                          X.o.O.e e e e e e e e e e e e e e e e e e e e b           ",
"                                         .m < e e e e e e e e e e e e e e e e e e e e e ..          ",
"                                      } d 2 e e e e e e e e e e e e e e e e e e e e e e |           ",
"                                    g { A e e e e e e e e e e e e e e e e e e e e e e n T           ",
"                                  ` +.] e e e e e e e e e e e e e e e e e e e e e e e [ %           ",
"                                9 ( ) e e e e e e e e e e e e e e e e e e e e e e e e _ 8           ",
"                              . ^ , e e e e e e e e e e e e e e e e e e e e e e e e e @.g           ",
"                              Q ! e e e e e e e e e e e e e e e e e e e e e e e e e n ~             ",
"                            T R e e e e e e e e e e e e e e e e e e e e e e e e e e E W             ",
"                          # D e e e e e e e e e e e e e e e e e e e e e e e e e e e #.              ",
"                        L P e e e e e e e e e e e e e e e e e e e e e e e e e e e I U               ",
"                      + a e e e e e e e e e e e e e e e e e e e e e e e e e e e e l                 ",
"                    G > e e e e e e e e e e e e e e e e e e e e e e e e e e e e J K                 ",
"                  S 4 e e e e e e e e e e e e e e e e e e e e e e e e e e e e D F                   ",
"                C Z e e e e e e e e e e e e e e e e e e e e e e e e e e e e A x .                   ",
"              N w e e e e e e e e e e e e e e e e e e e e e e e e e e e e B m c                     ",
"              v $.n e e e e e e e e e e e e e e e e e e e e e e e e e e r m M                       ",
"                * l , e e e e e e e e e e e e e e e e e e e e e e e e z x c                         ",
"                  g %.t e e e e e e e e e e e e e e e e e e e e e j : k .                           ",
"                      i p a e e e e e e e e e e e e e e e e e e s d f                               ",
"                        9 &.p E < e e e e e e e e e e e e r t y u                                   ",
"                            . = - ; : > , < 1 1 < 3 4 5 6 7 8                                       ",
"                                  . X o *.+ @ @ =.% & *                                             ",
"                                                                                                    ",
"                                                                                                    "
};
