/* XPM */
static char *result[] = {
/* columns rows colors chars-per-pixel */
"50 50 83 1 ",
"  c black",
". c #010100",
"X c #020200",
"o c #030300",
"O c #040400",
"+ c #181800",
"@ c #323200",
"# c #4A4A00",
"$ c #565600",
"% c #4C4C00",
"& c #353500",
"* c #1C1C00",
"= c #0A0A00",
"- c #4B4B00",
"; c #949400",
": c #CCCC00",
"> c #EFEF00",
", c yellow",
"< c #F2F200",
"1 c #D1D100",
"2 c #9B9B00",
"3 c #535300",
"4 c #101000",
"5 c #1B1B00",
"6 c #848400",
"7 c #DFDF00",
"8 c #FDFD00",
"9 c #FCFC00",
"0 c #E6E600",
"q c #909000",
"w c #262600",
"e c #060600",
"r c #7F7F00",
"t c #F1F100",
"y c #FBFB00",
"u c #FEFE00",
"i c #F9F900",
"p c #393900",
"a c #D7D700",
"s c #E5E500",
"d c #6C6C00",
"f c #FAFA00",
"g c #828200",
"h c #878700",
"j c #A2A200",
"k c #080800",
"l c #F8F800",
"z c #232300",
"x c #F5F500",
"c c #333300",
"v c #3B3B00",
"b c #3A3A00",
"n c #070700",
"m c #D8D800",
"M c #3F3F00",
"N c #050500",
"B c #838300",
"V c #444400",
"C c #1F1F00",
"Z c #F4F400",
"A c #484800",
"S c #8C8C00",
"D c #4E4E00",
"F c #111100",
"G c #E7E700",
"H c #545400",
"J c #5A5A00",
"K c #595900",
"L c #A8A800",
"P c #606000",
"I c #0C0C00",
"U c #E0E000",
"Y c #686800",
"T c #707000",
"R c #777700",
"E c #767600",
"W c #888800",
"Q c #9C9C00",
"! c #858500",
"~ c #6F6F00",
"^ c #5B5B00",
"/ c #191900",
"( c white",
/* pixels */
"                      .XooOOooX.                  ",
"                   .oo          oo.               ",
"                 XO    +@#$$%&*.   OX             ",
"               .O  =-;:>,,,,,,<1234  o.           ",
"              o  567,,,,,8998,,,,,0qw  O          ",
"             O ert,,8y8u,,,,,,u8y9,,iq4 o.        ",
"           .o pa,,y8,,,,,,,,,,,,,,uy,,s% ..       ",
"          .. d,,fu,,,,,,,,,,,,,,,,,,uf,,g  .      ",
"         .. h,,9,,,,,,,,,,,,,,,,,,,,,,8u,jk .     ",
"         o h,9u,,,,,,,,,,,,,,,,,,,,,,,,y,lz X     ",
"        O d,9u,,,,,,,,,,,,,,,,,,,,,,,,9,xc o      ",
"       o v,,u,,,,,,,,,,,,,,,,,,,,,,,,9,ib O       ",
"      . nm,9,,,,,,,,,,,,,,,,,,,,,,,,9,9M N        ",
"      O B,f,,,,,,,,,,,,,,,,,,,,,,,,9,,V N         ",
"     X CZ,u,,,,,,,,,,,,,,,,,,,,,,,8,,A N          ",
"     O S,y,,,,,,,,,,,,,,,,,,,,,,,8,,D N           ",
"    . FG,u,,,,,,,,,,,,,,,,,,,,,,8,,H N            ",
"    o J,9,,,,,,,,,,,,,,,,,,,,,,8,,K N             ",
"    o L,9,,,,,,,,,,,,,,,,,,,,,8,,P O              ",
"   . IU,8,,,,,,,,,,,,,,,,,,,,uu,Y O               ",
"   X @,,u,,,,,,,,,,,,,,,,,,,u8,T O                ",
"   o K,9,,,,,,,,,,,,,,,,,,,u8,R o.                ",
"   O E,y,,,,,,,,,,,,,,,,,,u8,r o.                 ",
"   o q,y,,,,,,,,,,,,,,,,,,u,W X.                  ",
"   o Q,y,,,,,,,,,,,,,,,,,8,! X.                   ",
"   o Q,y,,,,,,,,,,,,,,,,,8,! X.                   ",
"   o q,y,,,,,,,,,,,,,,,,,,u,h X.                  ",
"   O E,y,,,,,,,,,,,,,,,,,,u8,r o.                 ",
"   o K,9,,,,,,,,,,,,,,,,,,,u8,R o.                ",
"   X @,,u,,,,,,,,,,,,,,,,,,,u8,~ O                ",
"   . IU,8,,,,,,,,,,,,,,,,,,,,uu,Y O               ",
"    o L,9,,,,,,,,,,,,,,,,,,,,,8,,P O              ",
"    o ^,9,,,,,,,,,,,,,,,,,,,,,,8,,K N             ",
"    . FG,u,,,,,,,,,,,,,,,,,,,,,,8,,3 N            ",
"     O S,y,,,,,,,,,,,,,,,,,,,,,,,8,,D N           ",
"     X CZ,u,,,,,,,,,,,,,,,,,,,,,,,8,,A N          ",
"      O B,f,,,,,,,,,,,,,,,,,,,,,,,,9,,V N         ",
"      . nm,9,,,,,,,,,,,,,,,,,,,,,,,,9,9M N        ",
"       o v,,u,,,,,,,,,,,,,,,,,,,,,,,,9,ib O       ",
"        O d,9u,,,,,,,,,,,,,,,,,,,,,,,,9,xc o      ",
"         o h,9u,,,,,,,,,,,,,,,,,,,,,,,,y,lz X     ",
"         .. h,,9,,,,,,,,,,,,,,,,,,,,,,8u,jk .     ",
"          .. d,,fu,,,,,,,,,,,,,,,,,,uf,,g  .      ",
"           .o pa,,y8,,,,,,,,,,,,,,uy,,s% ..       ",
"             O ert,,8y8u,,,,,,u8y9,,iq4 o.        ",
"              o  567,,,,,8998,,,,,0qw  O          ",
"               .O  =-;:>,,,,,,<1234  o.           ",
"                 XO    /@#$$%&*.   OX             ",
"                   .oo          oo.               ",
"                      .XooOOooX.                  "
};
