/* XPM */
static char *d6bb3393879b4df689591062cb983280KDnhY6GqzzStSsTN[] = {
/* columns rows colors chars-per-pixel */
"50 50 194 2 ",
"   c #00004B",
".  c #00004C",
"X  c #00003E",
"o  c #000011",
"O  c #000010",
"+  c #000014",
"@  c #000044",
"#  c #00002A",
"$  c #00001C",
"%  c #00001D",
"&  c #000034",
"*  c #00003F",
"=  c #000023",
"-  c #000028",
";  c #000048",
":  c #000046",
">  c #00003A",
",  c #000026",
"<  c #000027",
"1  c #0000B9",
"2  c #0000BC",
"3  c #000094",
"4  c #00000E",
"5  c #000019",
"6  c #0000A6",
"7  c #0000BA",
"8  c #00005B",
"9  c #000032",
"0  c #000035",
"q  c #000078",
"w  c #000097",
"e  c #000045",
"r  c #000054",
"t  c #0000B2",
"y  c #0000AC",
"u  c #000098",
"i  c #000089",
"p  c #00004F",
"a  c #00004D",
"s  c #000051",
"d  c #000052",
"f  c #000055",
"g  c #00001A",
"h  c #0000BB",
"j  c #000031",
"k  c #0000BE",
"l  c #0000BD",
"z  c #000047",
"x  c #0000B6",
"c  c #0000B0",
"v  c #00009A",
"b  c #00009B",
"n  c #00009C",
"m  c #00008C",
"M  c #000056",
"N  c #000093",
"B  c #00000A",
"V  c #000007",
"C  c #000012",
"Z  c #000099",
"A  c #0000AD",
"S  c #000065",
"D  c #000074",
"F  c #0000A1",
"G  c #00009F",
"H  c #000081",
"J  c #00005E",
"K  c #000060",
"L  c #000062",
"P  c #0000A0",
"I  c #0000B1",
"U  c #000088",
"Y  c #00006A",
"T  c #00006C",
"R  c #00006D",
"E  c #00004E",
"W  c #000029",
"Q  c #00002B",
"!  c #000069",
"~  c #000068",
"^  c #000042",
"/  c #000091",
"(  c #000003",
")  c black",
"_  c #00008B",
"`  c #00009E",
"'  c #00009D",
"]  c #000070",
"[  c #00005D",
"{  c #000083",
"}  c #000082",
"|  c #000084",
" . c #00002C",
".. c #00002D",
"X. c #0000A9",
"o. c #0000A7",
"O. c #000050",
"+. c #000015",
"@. c #000016",
"#. c #00000C",
"$. c #000005",
"%. c #00005C",
"&. c #000085",
"*. c #000002",
"=. c #00000F",
"-. c #00006F",
";. c navy",
":. c #0000B3",
">. c #00008D",
",. c #00000B",
"<. c #00008E",
"1. c #000071",
"2. c #00005F",
"3. c #000073",
"4. c #000087",
"5. c #000086",
"6. c #00000D",
"7. c #0000AA",
"8. c #000059",
"9. c #000020",
"0. c #000024",
"q. c #000017",
"w. c #000004",
"e. c #00006E",
"r. c #00007E",
"t. c #00007D",
"y. c #000041",
"u. c #0000A8",
"i. c #000079",
"p. c #000095",
"a. c #0000A4",
"s. c #0000A5",
"d. c #00001B",
"f. c #000036",
"g. c #000066",
"h. c #000030",
"j. c #00002E",
"k. c #0000AF",
"l. c #00008A",
"z. c #00007C",
"x. c #0000B8",
"c. c #000075",
"v. c #000096",
"b. c #0000AE",
"n. c #0000B5",
"m. c #00001F",
"M. c #00003C",
"N. c #000064",
"B. c #000057",
"V. c #000058",
"C. c #00004A",
"Z. c #0000B7",
"A. c #00007A",
"S. c #000092",
"D. c #0000AB",
"F. c #000039",
"G. c #000067",
"H. c #00007B",
"J. c #00002F",
"K. c #000038",
"L. c #0000A2",
"P. c #0000A3",
"I. c #000053",
"U. c #000018",
"Y. c #000033",
"T. c #000013",
"R. c #000076",
"E. c #000072",
"W. c #000063",
"Q. c #0000B4",
"!. c #00006B",
"~. c #00005A",
"^. c #00001E",
"/. c #000040",
"(. c #00007F",
"). c #00003D",
"_. c #000043",
"`. c #000025",
"'. c #000009",
"]. c #000001",
"[. c #000061",
"{. c #00008F",
"}. c #000077",
"|. c #000037",
" X c #0000C1",
".X c #0000BF",
"XX c #000049",
"oX c #000090",
"OX c #000008",
"+X c #00003B",
"@X c #000021",
"#X c #000022",
"$X c #000006",
"%X c white",
/* pixels */
"  . X o O O + @       # $ % $ & .   . * = = = - ;                       : * * * > , , , , < < < < - ",
"1 2 3 o 4 4 5 6 7 1 1 8 9 0 9 q 2 1 2 w : : e r t 1 1 1 1 1 1 1 1 1 1 7 y w w u i p a a a s d d d f ",
"1 2 3 o 4 4 g 6 h 7 7 8 j & j q k 7 l u : z : f x k k l 7 1 1 1 2 l l k c v b n m s p p p s s s s M ",
"1 2 N B V V C Z A y y S : ; : D F G F H > > > * J K K L P t c I U Y T R K E E p z W - - Q K ! ~ ~ ^ ",
"1 2 / ( ) ) B _ ` ' ' ] [ J [ ] { } | ~  . ..., ) ) ) ) | X.o.X.O.C +.@.#.) ) ) ) ) ) ) $.] } H H  .",
"1 2 / ( ) ) B m G ` ` ] %.[ %.] | { &.! ......< *.) ) ( &.X.o.X.d +.5 5 =.) ) ) ) ) ) ) V -.H ;.;...",
"c :.>.4 #.,.@.<.P G G 1.J 2.J 3.4.5.U R j 9 9 ..#.B B 6.4.7.o.7.8.9.0.0.q.*.*.*.w.#.#.#.C e.r.t.t.9 ",
"^ y.f Z v v b 6 u.u.u.4.q i.q p.I c t b ! ! ! T } { { | a.A y y u.s.s.u.] d.% d.f.n G G n g.[ [ [ T ",
"h.j.. k.I I c 7.X.X.X.l.z.t.z.v x.x x.F 1.1.1.c.N p.p.v.u.b.A A n.7 7 k r.% m.% M.t n.x c N.B.V.V.D ",
". C.%.p.v.v.u u.7.7.7.>.H } H n Z.x Z.a.A.A.A.t.S.N N 3 6 D.D.D.F Z v n c.F.> F.s b.I I A 1.g.G.G.H.",
"n.Z.u 9 h.J.K.G b.A A ' v.v.v.o.x.Z.Z.I L.L.L.P S./ / / G P.L.s.d 5 $ 5 I.X.o.o.o.s.a.a.a.L.L.L.L.u ",
"1 h b j. . .0 ` b.A A ' w w v.o.x.Z.Z.I P.P.P.F S./ / / G L.L.a.O.+.U.+ s A D.D.7.a.a.a.a.a.a.a.a.v ",
"1 h v ..# # Y.` b.A A ' v.w v.u.1 x.1 t s.s.s.P.N / / S.P P.P.6 p T.@.C s k.A A D.s.s.s.s.a.a.a.a.Z ",
"1 7 X.1.] ] D u.k.k.k.7.o.o.u.u U i l.q s s s V.H | | { R.E.E.3.Y W.N.W.G.R R T E.4.4.4.U w Z Z Z n ",
"1 1 :.G G G P b.c c c t :.:.Q.>.G.! !.s 5 g 5 , c.H.A.A.~.s d s H.Z w Z R.y.^ ^ . 3.D D c.<.S.S.S.` ",
"1 1 t b v v n A c c c c c c I >.Y !.R r m.m.^.# D A.i.i.%.r f r H.v.3 v.c.@ e e E 3.D D R.<.N S.S.' ",
"1 h G ^ /./.: l.3 N 3 z , W , r ;.r.t.} >.>.<.(.= $ $ ^.E.i U 4.v.G G F | 8.~.~.r ).).M._.' y D.y 8.",
"1 h Z `.= = # (._ l._ , ) ) ) y.4.{ } / I c t v '.) ) ].i.v u u ` L.L.a.i 2.K [.M  .Q Q 9 F n.Q.Q._.",
"1 h Z - , , ..} {.<.<., ) ) ) y.4.{ } / I I t v V ) ) ) }.Z w w G a.a.6 l.[.L L B.Q # # 9 F Q.:.:.@ ",
"1 2 w $ g g m.8.L [.[.@ |.K.f.%.H (.(.} i i l.(.M.|.|.F.{ u v.w >.5.4.U e.z ; ; ; : : e   a.:.t t ^ ",
"1 2 / ( ) ) ) ) ) ) ) | l 7 h u c.}.q L 9 Y.9 _.c x.x.Z.n 3 p.v.g.e z ; 9 O o =.< (.H H | 7.c c c ).",
"7 l S.*.) ) ) ) ) ) ) 5. Xl .XZ c.}.q L h.j h.y.I 1 1 x.' v.v.u ~ z XXC.j #.6.#.0.r.H H | y :.:.:.M.",
"a.6 5.% d.d.$ 9 0 0 0 ~.!.! ! D (.r.(.c.K K K G.oXN N N } r.r.;.XX0., `.> 8.8.V.K t.r.r.r.(.(.(.(.  ",
"_ m A.M.> > X R D D D W '.,.OXC.l.4.4.m v.v.v.oX!.~ ~ ~ N.W.W.S < ) ) ) _.c A b.a.z.H.H.q a e : : %.",
"m >.A.> F.F.).!.E.1.1.Q 6.=.#.. l.4.4._ 3 3 3 {.R Y Y Y S N.N.g.- ) ) ) ^ A 7.D.F z.H.H.q p z ; ; %.",
"<.{.H.F.K.K.+XN.!.Y Y J.+.q.+ . { H ;.5.S.S.S.>.T Y Y Y g.S S G.Q *.w.) @ 7.u.u.P (.r.(.z.I.. . . ~.",
"6 u._ W < < `.o 4 4 4 [ (.t.(.I.- # W * ] ] ] -.G.g.g.G.1.D D c.f * /.X [ m l.l./ y A A D.m 4.4.4.* ",
"7.y >.`.= = @X*.) ) ) W.oX>.{.r 5 $ g & T T T !.S S S S E.R.R.R.8 z XXz K 5.&.| {.n.x x Q.v./ S.S.> ",
"A k./ j J.J...% g g g e.N oXN M d.^.$ j [ [ [ K 3.D D D z.(.(.(.G.B.V.M R oX{.{.S.P P P ` &.;.;.;.@ ",
"1 7 s.K 2.2.W.>.N N N G s.a.o.[.% 9.9.m.% % d.J.D.n.Q.Q.X.6 6 o.P b b b 6 x.Z.1 F z e e @ > K.K.K.1.",
"1 7 6 L [.[.S S.u u u F s.s.u.L % 9.9.^.g g 5 ..b.Z.Z.Z.D.u.u.u.L.` ` ' X.1 1 h L.@ y.y./.|.0 0 0 3.",
"7 h o.L [.[.N./ u u u L.o.o.7.[.d.^.^.$ q.q.@.Q A Z.Z.Z.y 7.7.7.P.' ` ' u.1 1 h F ^ * * X & Y.Y.Y.E.",
"v.w <.-.e.e.E.` a.a.a.A.~ ! ! ~ ~ ~ ~ T R.R.c.r.t x x Q.A.! !.Y {.7.u.u.b.1 x.1 k.i 4.4.4.} H H H 3 ",
"r.r.z.q q }.H.6 A A A [ +X).+XR ` n b a.x.x.x.x.n.n.n.:.B.).X ).} t k.k.:.x.x.x.x.7 7 7 7 x.Z.Z.Z.y ",
"(.(.t.}.}.}.H.s.D.D.D.K * y.* e.b Z Z F Q.Q.Q.Q.Q.Q.Q.t 8./.y./.{ t k.k.t x.Z.Z.Z.x x x x Q.Q.Q.Q.7.",
"t.z.H <.{.{.l.M p p p H w p.p.P 7.7.X.b.Z.Z.Z.I _ U U 4.R g.g.S v.1 Z.x.6 m >.>.m i i i _ D.I c c s.",
"z.z.} v.w w oXM.J.h.h.m n.t t I k.k.k.t x.x.1 c t.i.i.i.D 3.3.E.' h 1 h L.t.r.r.t.i.i.i.z.u.k.k.k.a.",
"r.r.{ v.v.v.{.+XJ.J.J.m Q.I I I c c c :.1 1 7 I t.i.i.i.E.] 1.-.' l h l a.(.;.;.r.A.A.A.t.u.k.k.k.a.",
"L [.T S.N N {.[ f M M m P.L.L.G b b b G X.X.X.s.>._ _ _ 4.5.5.5.3 ' ' ` <.q q q i.z.z.z.(.X.c c c o.",
"@Xm.K.i _ _ >.7.b.b.b.>.r.(.(.c.Y !.Y E.| | | l.I Q.Q.Q.x Z.Z.1 r.r B.B.[ G.G.G.T ;.H H | D.I I I b.",
"#X9.F.>.<.<./ b.t t t >.t.r.(.c.!.T !.3.&.| | l.I Q.Q.Q.1 7 7 h ;.B.8.8.2.~ G.G.T ;.;.;.{ D.t I I b.",
"+ T.@XE p p s g.! ! ! } m m >.}.[.L [.Y z.z.H.{ :.x x n.<.{ | &.s ..J.j._.L [.K Y <.{.{.oXX.b.A A A ",
"( ( w.$.$.$.$XC + + + D ` n ' i.f B.M 2.E.E.1.A.n.1 1 Z.%.^ @ e g ) ) ) #X8 ~.8.G.` P P P u.X.X.X.y ",
"w.w.$.OXOXOX'.+.q.q.q.c.` b ' i.f B.B.2.E.E.E.H.n.1 1 Z.J @ : z $ ) ) ) = 8 ~.8.G.` G G P u.X.X.X.y ",
"$X$XV '.'.'.,.% 9.9.9.E.v.3 p.3.s d d ~.R R R R.:.x.x.n.~./.^ _.m.$.V w.- %.8 ~.G.v.w w u G P P P X.",
"= = #X% % % , 3 a.a.a.; @X= 0.q.,.#.,.T.= = #XY.b P.L.G W V '.OX^ !.! ! !.R R e.2., `.`.0.U.@.@.@.R.",
"< < `.9.9.9.# 7.l 2 2 y.#.=.O $X) ) ) w.+.+ T.`.v.G ` b m.) ) ) ; z.i.A.R.] ] 1.[ o =.=.4 ) ) ) ) R ",
"* /.F.= = =  .3 a.P.P.* + q.q.d.^.^.^.0.j j h.* n P.P.P j.4 O 4 f 5.{ | (.}.}.q ! J.....Q =.B ,.,.G.",
"Q.x w Y.j j 9 0 f.f.f.0 0 0 9 D n.t t t :.:.:.Q.x.x.x.x E.2.K 2.3 1 Z.Z.D.Z Z Z ` t :.:.A p * /./.z ",
"1 h n & 9 9 9 j j j j 0 f.f.Y.q 2 1 1 1 1 1 1 1 1 1 1 Z.c.W.N.W.w h 1 7 A b b b F x.1 1 :.d y.^ ^ : "
};
