/* XPM */
static char *_ced2637379147d1d4565adebf80d606qqhamuVOZmsoG77G[] = {
/* columns rows colors chars-per-pixel */
"50 50 148 2 ",
"   c #09161E",
".  c #101E1F",
"X  c #0A1622",
"o  c #0E1B24",
"O  c #0F1B2A",
"+  c #111E26",
"@  c #121E2A",
"#  c #142126",
"$  c #15222B",
"%  c #19252D",
"&  c #1A282D",
"*  c #162231",
"=  c #1A2533",
"-  c #1D2A34",
";  c #1E2A39",
":  c #212D36",
">  c #222D3B",
",  c #25323C",
"<  c #28353E",
"1  c #242F41",
"2  c #263242",
"3  c #2A3644",
"4  c #2D3A45",
"5  c #2B3749",
"6  c #2E3A49",
"7  c #313D46",
"8  c #313D4C",
"9  c #333E50",
"0  c #35414D",
"q  c #364353",
"w  c #394655",
"e  c #3D4956",
"r  c #374659",
"t  c #3B4759",
"y  c #3E4A5B",
"u  c #3F4E61",
"i  c #414E57",
"p  c #414D5D",
"a  c #43515E",
"s  c #424E61",
"d  c #445262",
"f  c #495565",
"g  c #4C5964",
"h  c #495669",
"j  c #4D5A6B",
"k  c #515D6E",
"l  c #4E5D70",
"z  c #525E71",
"x  c #56646F",
"c  c #546274",
"v  c #596575",
"b  c #5C6977",
"n  c #576379",
"m  c #5A6679",
"M  c #5E6B7E",
"N  c #5E6B7D",
"B  c #5C6C7C",
"V  c #5D6D7C",
"C  c #5F6C7D",
"Z  c #5F6C7F",
"A  c #5F6F7E",
"S  c #5F6F7F",
"D  c #5C6A7B",
"F  c #606D7D",
"G  c #606D7E",
"H  c #616E7F",
"J  c #626F7F",
"K  c #626D7E",
"L  c #5F6C81",
"P  c #626F80",
"I  c #626F82",
"U  c #626E82",
"Y  c #607080",
"T  c #617180",
"R  c #637080",
"E  c #637081",
"W  c #627281",
"Q  c #627282",
"!  c #637382",
"~  c #647181",
"^  c #647182",
"/  c #657282",
"(  c #657283",
")  c #647184",
"_  c #667384",
"`  c #667386",
"'  c #677485",
"]  c #667685",
"[  c #667686",
"{  c #657183",
"}  c #687586",
"|  c #697687",
" . c #697586",
".. c #677689",
"X. c #6A7788",
"o. c #6A778A",
"O. c #697589",
"+. c #697989",
"@. c #6B7889",
"#. c #6B788B",
"$. c #6B7B8B",
"%. c #6C798A",
"&. c #6C7C8B",
"*. c #6F7C8C",
"=. c #6E7E8E",
"-. c #6D7A8D",
";. c #717E8F",
":. c #717C8F",
">. c #6F7C92",
",. c #747F95",
"<. c #718190",
"1. c #738091",
"2. c #728292",
"3. c #748192",
"4. c #758595",
"5. c #778495",
"6. c #768696",
"7. c #778797",
"8. c #778796",
"9. c #768194",
"0. c #798697",
"q. c #7B8797",
"w. c #778298",
"e. c #7A8798",
"r. c #7B869B",
"t. c #788898",
"y. c #798999",
"u. c #7B8899",
"i. c #7A8A9A",
"p. c #7B8B9B",
"a. c #7C899A",
"s. c #7C8C9C",
"d. c #7D8D9D",
"f. c #7E8E9D",
"g. c #7F8F9F",
"h. c #7E899B",
"j. c #7F8CA1",
"k. c #818C9E",
"l. c #828FA0",
"z. c #828DA1",
"x. c #8191A1",
"c. c #8393A3",
"v. c #8592A3",
"b. c #8595A5",
"n. c #8696A6",
"m. c #8691A4",
"M. c #8893A6",
"N. c #8A95A8",
/* pixels */
"4 , j &.$.[ o.#.I ` U U ) ' 0.l.8.W W [ T T <.y.8.p.g.p.p.8.g.r $ # , 0 < x J J J A +.q.v.a.~ K W [ ",
"6 2 d b b v m m L L m I | o.3.5.<.b v b B V V <.<.<.t.4.t.y.g.q o # , 0 0 v J J <.A X.<.i.=.N D b W ",
"0 2 r d d d s d u t u n K N K K V d y u a d a g u l T T <.8.g.r o & , 7 > u e u F b b A W v y y h b ",
"6 3 0 r y s r y u y s D | I ~ ~ b u r y r e r e r g A T <.f.g.r   % , 7 4 e e u ~ K ! ' ) m d y l ! ",
"0 4 q e u d y y s s d c D v m m x u a u u u e a u l V c <.4.t.0   % > < 0 i p f v v N b B c u s j B ",
"4 4 q a s d y t t r r s p w p p u r u e e y u a r r g e l A <.4 o - , < 7 w w e y t y y s y q y r f ",
"0 : 0 a y p y y s h p s p t p p u e u u e y y y r r r r l B V 6 . @ > 4 8 i p f y y u t p d t d r u ",
"0 : q d t y d y y s t t p p p p u e a u e u y u a e u r B V <.6 o @ < 4 7 e p p y y s y y d t y y u ",
"0 > q u t p s p p t p p i 9 p p p y y p p p p t a r e a x Q W 0 + @ < 7 7 e p p p p s p y s p p r u ",
"0 > e g y y p p p p p p p p p p y p y y p t p p u r r r d A B 0 . @ < < 7 e p p p s t p y s t p r u ",
", - 0 u y i p y p t t p p p p 9 y p y p y y p p a a x l L 2.<.q o @ < 7 7 e p p p p y p y s t s d c ",
"# . < e t i s p p p p p p p p i u y y p y p t p r l W A 2.g.6.0 o + < < 7 w p p p p p y y y s p l Y ",
"# + 4 e e a p y p s p p p p p p i y p p p p i p p k  .K >.i.h.q o @ < 7 6 e p s p p t s t s p s h ) ",
"$ + 4 a e a i y p t p p p p i i p p y p p p t p p z 9.' 4.t.k.t + $ < < 6 t p s t p t s p p t s l >.",
"@ o 4 a a p a y p p 9 p i w i p p p p i p p p p 9 z k.9.k.q.a.q o # < 3 7 e s s t p s s p s s t z w.",
"$ @ 0 y i i p y p p s s p p p p y p y p i p p p p v N.k.M.a.k.t @ % < 7 7 p s s t p s s s p p p L j.",
"@ % = : 1 7 9 7 e p p p p p t t y t p t d t h c c j l l O.-.-.2 X @ - = > 8 r 6 t p p p p p p p j O.",
"@ @ @ @ @ > 5 3 p p p p p s p p a t y y d t j ! | j u q z U >.6 + @ $ @ * > 9 6 s s p p p p p 9 h U ",
"% % % @ @ > 7 7 e p p t p p p p d y a d d q j ) | x y y c M ..q % $ $ $ * > 8 8 p s t p p p p p l L ",
"@ @ @ @ @ - > : 5 5 8 8 8 9 8 8 q q t t q 6 q s t t t y s t u ; + + @ $ @ = ; ; 5 9 9 p p p p 9 s l ",
"@ + $ $ # # # o 3 3 7 3 5 5 7 3 0 e p y 8 6 5 6 3 9 t t 9 1 6 = @ . + $ @ @ @ O 2 5 8 p p p i p q u ",
"$ $ % % % @ % @ 3 3 7 3 3 7 7 3 8 y s q 5 5 5 6 8 t t u t 5 9 ; @ + $ $ @ * * @ 5 5 8 w p p i p y u ",
"$ . . @ + @ @ % @ % = = % = % @ - 8 0 6 $ = ; 5 1 9 5 6 6 2 2 * + . + @ @ @ : @ 6 6 8 i p p i p t s ",
"% . # % # # % @ @ @ @ @ @ @ @ @ * 2 4 4 O @ ; 8 5 9 5 6 5 5 9 ; # # % @ + $ @ o 5 4 9 p a p i i p u ",
"# # # . # . @ # @ @ # @ % @ @ = % 1 7 < @ @ = 7 3 8 6 6 6 8 8 : + # % + - - % @ 6 3 3 p p i i e p t ",
". # # % % % % % @ @ % % % @ @ @ @ = = = @ @ @ = @ ; 2 6 6 6 5 * + # + + % : 3 3 = @ * 3 6 8 i p s s ",
"# @ # @ # @ @ # + + @ @ @ @ @ @ @ + @ + = = % + @ > 5 9 9 9 9 > + # + . % , 4 6 O @ * 5 8 q s s s s ",
"@ # # . . % % % = = = @ % % = = - @ % @ = @ % @ @ > 1 3 < > 3 : + + % - : < 6 6 * ; > 3 3 4 r r t t ",
"# # # # % : 7 7 < 3 < < 3 7 3 1 > % % @ % . % % @ @ % = * @ = @ + @ : < 5 w s 9 6 5 1 * * ; 5 9 t t ",
"$ # # # % > 7 7 7 9 7 9 7 9 7 7 < % + . @ @ @ @ @ @ @ = * @ = @ + @ < 7 8 p h s 6 9 1 * O * 5 5 9 u ",
"@ # % % : : , < < 7 9 1 > 1 7 9 < : @ : = : = = : % @ @ % @ = @ @ + > 4 3 i d t 5 9 5 1 = 1 9 2 9 u ",
"# = : : 4 4 7 7 e i 9 > @ = < 7 7 7 < 7 7 7 < 7 7 > @ @ % @ = * @ @ , 8 6 9 d 9 s d 9 5 2 9 s u r u ",
"% + - 7 0 < 7 7 i g i % X @ 3 3 8 4 7 7 < 7 9 4 8 > * @ @ @ @ @ @ + , 7 5 i s p s p 9 5 8 9 s d p s ",
"# + % 7 7 > > , < < 7 < , < 0 0 4 , 3 3 2 3 6 2 6 , = = : : * @ + + , < 4 e p y p p p 9 9 9 p s t s ",
"@ @ : 7 7 : * @ % @ - 9 s i e i i 5 6 9 6 9 9 8 9 8 5 6 8 9 4 : + @ < 7 4 t p t t t s p p i p p s s ",
"@ $ > 7 5 : @ o % o * e f i w f i 7 > 3 6 3 2 2 1 5 6 6 6 8 , : + + < 7 8 i p y p p d s d p p p 9 p ",
"@ @ = > > > > = > ; = w w 9 3 5 7 < : 7 i p 9 6 5 9 9 8 3 2 : : + + , < 7 e s p p p s s s w p p p p ",
"$ @ @ = = > 5 6 8 6 5 9 7 3 = * @ + X > w p 9 7 3 5 6 , : @ + + + + < 4 6 i s p p p s 9 p p p p p s ",
"= @ @ @ % : 7 7 3 5 6 3 3 > - @ @ @ @ : i p i 7 9 7 3 4 > @ @ $ # # < 4 5 t i i s t p p s w p p t p ",
"@ @ $ $ @ = : : > : , - , > ; * & & + @ 4 9 7 < 3 > : > : @ + + + + : , , 0 t q p t p p d i p p f k ",
"# % $ o $ $ $ @ @ @ + $ $ + @ % # . # & + + : < < - + . # & # # %   % o @ > 9 5 p y p p p p t p g U ",
". # # . + $ o . o o @ @ @ + + @ # . . # . . : < 7 : + . # # . # % X % # * > 9 6 y y p p t p t p h U ",
"+ $ % # # % % $ $ % % $ @ $ % % & # # & % & & : : - # & & & # # # . > : > 9 e w y p p p p p p p f K ",
"% $ $ $ + # @ * @ $ $ + . @ % $ + + # + $ @ @ + + + . # # . % . + % < 3 9 i p p p y t p p p p t k  .",
"o . @ % @ o @ @ @ @ @ @ @ @ @ O @ @ @ . O * * O + O + X @ + :   o % < < 5 p p p p p p t p p p t j K ",
"3 3 e g g f g f g j z m K F j f g z K F K { z k j v K F K z F 7 o % % % = 9 9 9 p p t p p p p p f N ",
"6 6 f  .U  . . . .U O.h.m.r.-.U  .k.M.M.M.N.,.O.) ,.m.z.N.k.k.t . $ $ o @ 5 5 5 p p t p p p p t k K ",
"6 5 f K U U { U U m L ,.z.w.O.K -.,.k.,.,.r.,.U U :.w.:.k.w.k.r X # @ @ * 6 5 9 p t p p p p p t f N ",
"3 3 9 w 9 s f p j h h ) O.O.U U z z h h h h h u d d h h L ) >.6 o $ @ @ @ 4 7 7 p t p t t f v N v s ",
"9 2 5 5 5 w s p p 9 p z U ` U ) z h s s u s h 9 u t s s z L O.5 o $ @ @ @ 3 5 5 s p s p p g U O.z p "
};
